<?xml version="1.0" encoding="utf-8"?>
<!-- Generator: Adobe Illustrator 27.6.1, SVG Export Plug-In . SVG Version: 6.00 Build 0)  -->
<svg version="1.1" id="Layer_1" xmlns="http://www.w3.org/2000/svg" xmlns:xlink="http://www.w3.org/1999/xlink" x="0px" y="0px"
	 viewBox="0 0 640 512" style="enable-background:new 0 0 640 512;" xml:space="preserve">
<path d="M350,32c160.1,0,290,90.9,290,203c0,11.6-13.4,21-30,21s-30-9.4-30-21c0-88.9-103-161-230-161c-16.6,0-30-9.4-30-21
	S333.4,32,350,32z M360,200c22.1,0,40,12.5,40,28s-17.9,28-40,28s-40-12.5-40-28S337.9,200,360,200z M320,137c0-11.6,13.4-21,30-21
	c93.9,0,170,53.3,170,119c0,11.6-13.4,21-30,21s-30-9.4-30-21c0-42.5-49.2-77-110-77C333.4,158,320,148.7,320,137z M146.9,33.2
	c24.2-4.6,49.6,4,59.2,20.3l50,84c8.5,14.3,2.6,30.8-14.5,40.5L180,213.4C221.6,275,292.9,324.9,380.9,354l50.4-43.1
	c14-12,37.5-16.1,57.9-10.1l120,35c23.2,6.7,35.6,24.5,29,41.5l-30,77c-5.9,15.2-25.6,25.8-48.1,25.8C250.8,480,0,304.5,0,88
	c0-15.7,15.1-29.6,36.9-33.8C36.9,54.2,146.9,33.2,146.9,33.2z"/>
</svg>
