<?xml version="1.0" encoding="utf-8"?>
<!-- Generator: Adobe Illustrator 27.6.1, SVG Export Plug-In . SVG Version: 6.00 Build 0)  -->
<svg version="1.1" id="Layer_1" xmlns="http://www.w3.org/2000/svg" xmlns:xlink="http://www.w3.org/1999/xlink" x="0px" y="0px"
	 viewBox="0 0 640 512" style="enable-background:new 0 0 640 512;" xml:space="preserve">
<path d="M419.4,144c0-38.7-44.5-70-99.4-70s-99.4,31.3-99.4,70s44.5,70,99.4,70S419.4,182.7,419.4,144z M160.9,144
	c0-61.9,71.2-112,159.1-112s159.1,50.1,159.1,112S407.9,256,320,256S160.9,205.9,160.9,144z M102.9,438h434.2
	c-11.1-55.4-78.7-98-160.3-98H263.2C181.5,340,113.9,382.6,102.9,438z M41.6,454c0-86.2,99.2-156,221.6-156h113.6
	c122.4,0,221.6,69.8,221.6,156c0,14.4-16.5,26-36.9,26h-483C58.1,480,41.6,468.4,41.6,454z"/>
</svg>
